<?xml version="1.0" encoding="UTF-8" standalone="no"?><svg xmlns="http://www.w3.org/2000/svg" xmlns:xlink="http://www.w3.org/1999/xlink"><symbol viewBox="0 0 20 20" id="github" xmlns="http://www.w3.org/2000/svg">
    <title>github [#142]</title>
    <desc>
        Created with Sketch.
    </desc>
    <defs/>
    <g id="aPage-1" stroke-width="1" fill-rule="evenodd">
        <g id="aDribbble-Light-Preview" transform="translate(-140.000000, -7559.000000)">
            <g id="aicons" transform="translate(56.000000, 160.000000)">
                <path d="M94,7399 C99.523,7399 104,7403.59 104,7409.253 C104,7413.782 101.138,7417.624 97.167,7418.981 C96.66,7419.082 96.48,7418.762 96.48,7418.489 C96.48,7418.151 96.492,7417.047 96.492,7415.675 C96.492,7414.719 96.172,7414.095 95.813,7413.777 C98.04,7413.523 100.38,7412.656 100.38,7408.718 C100.38,7407.598 99.992,7406.684 99.35,7405.966 C99.454,7405.707 99.797,7404.664 99.252,7403.252 C99.252,7403.252 98.414,7402.977 96.505,7404.303 C95.706,7404.076 94.85,7403.962 94,7403.958 C93.15,7403.962 92.295,7404.076 91.497,7404.303 C89.586,7402.977 88.746,7403.252 88.746,7403.252 C88.203,7404.664 88.546,7405.707 88.649,7405.966 C88.01,7406.684 87.619,7407.598 87.619,7408.718 C87.619,7412.646 89.954,7413.526 92.175,7413.785 C91.889,7414.041 91.63,7414.493 91.54,7415.156 C90.97,7415.418 89.522,7415.871 88.63,7414.304 C88.63,7414.304 88.101,7413.319 87.097,7413.247 C87.097,7413.247 86.122,7413.234 87.029,7413.87 C87.029,7413.87 87.684,7414.185 88.139,7415.37 C88.139,7415.37 88.726,7417.2 91.508,7416.58 C91.513,7417.437 91.522,7418.245 91.522,7418.489 C91.522,7418.76 91.338,7419.077 90.839,7418.982 C86.865,7417.627 84,7413.783 84,7409.253 C84,7403.59 88.478,7399 94,7399" id="agithub-[#142]"/>
            </g>
        </g>
    </g>
</symbol><symbol viewBox="0 0 32 32" id="gulp" xmlns="http://www.w3.org/2000/svg">
    <path d="M20.208 25.912l0.849-1.448c0 0-1.927 0.787-5.145 0.787-3.224 0-5.12-0.756-5.12-0.756l0.948 1.579 0.333 4.968c0 0.543 1.749 0.959 3.916 0.959 2.161 0 3.917-0.416 3.917-0.959l0.301-5.109zM21.027 16.516c-1.021 0.063-1.537 1.203-2.053 2.405-0.187 0.439-0.837 2.319-1.26 2.084-0.427-0.229 0.547-1.771 0.823-2.688-0.317 0.229-1.473 1.131-1.771 0.287-0.479 0.417-1.505 0.641-1.391-0.443-0.255 0.464-0.828 1.099-1.515 0.823-0.901-0.344 0.525-3.219 0.88-3.077 0.353 0.161-0.073 0.801-0.183 1.057-0.251 0.563-0.531 1.281-0.344 1.416 0.323 0.26 1.208-0.932 1.229-0.959 0.161-0.219 0.636-1.635 1.016-1.473 0.38 0.177-0.948 2.057-0.453 2.432 0.099 0.084 0.511-0.036 0.76-0.317 0.156-0.156 0.104-0.557 0.636-1.833 0.541-1.281 1.020-2.875 1.385-2.756 0.369 0.12 0.068 0.939-0.068 1.256-0.62 1.437-1.688 3.792-1.188 3.615 0.5-0.183 0.761-0.183 1.261-0.76 0.5-0.579 0.459-1.537 0.796-1.516 0.324 0.020 0.281 0.339 0.204 0.557 0.317-0.36 1.531-1.156 1.812-0.38 0.344 0.916-1.735 2.26-1.219 2.176 0.5-0.057 1.317-0.577 1.683-1.057l0.959-8.667c0 0-0.98 0.803-7.152 0.803-6.167 0-7.047-0.781-7.047-0.781l0.817 7.907c0.443-1.235 1.48-3.751 3.1-3.652 0.739 0.043 1.733 1.48 0.875 1.516-0.36 0.021-0.401-0.719-0.817-0.817-0.319-0.057-0.74 0.183-1.016 0.464-0.541 0.536-1.74 2.671-1.579 3.733 0.199 1.355 1.875-0.463 2.156-1 0.199-0.38 0.339-1.52 0.756-1.4 0.443 0.119-0.037 1.301-0.36 2.317-0.359 1.161-0.541 2.375-0.973 2.235-0.443-0.141 0.276-1.636 0.235-1.896-0.417 0.401-1.177 1.359-2.172 0.88l0.495 4.932c0 0 1.359 1.057 5.432 1.057s5.489-1.057 5.489-1.057l0.641-5.713c-0.521 0.521-2.157 1.416-2.256 0.401-0.077-0.819 1.776-1.995 1.297-2.021zM23.131 0.891l-3.547 3.735-0.652 2.536c2.511 0.156 4.256 0.516 4.256 0.921 0 0.563-3.219 1.011-7.188 1.011s-7.188-0.457-7.188-1.015c0-0.557 3.219-1.021 7.188-1.021 0.563 0 1.125 0 1.688 0.021l0.744-3.032 3.765-3.995c0.095-0.12 0.376-0.021 0.636 0.199 0.255 0.203 0.396 0.457 0.317 0.577v0.041zM18.016 8.62c0 0-0.699 0-0.813-0.109-0.031-0.032-0.047-0.079-0.047-0.12 0-0.079 0.052-0.12 0.12-0.145l0.057 0.099c-0.027 0.011-0.036 0.020-0.041 0.031 0 0.057 0.416 0.095 0.739 0.089 0.319-0.005 0.709-0.032 0.709-0.084 0-0.016-0.032-0.031-0.084-0.047l0.063-0.093c0.084 0.025 0.156 0.077 0.156 0.161 0 0.145-0.187 0.172-0.307 0.187-0.141 0.021-0.547 0.032-0.547 0.032z"/>
</symbol><symbol viewBox="0 0 24 24" id="issues" xmlns="http://www.w3.org/2000/svg">
    <path d="M21 22H3C2.59 22 2.25 21.66 2.25 21.25C2.25 20.84 2.59 20.5 3 20.5H21C21.41 20.5 21.75 20.84 21.75 21.25C21.75 21.66 21.41 22 21 22Z"/>
    <path d="M19.0206 3.48162C17.0806 1.54162 15.1806 1.49162 13.1906 3.48162L11.9806 4.69162C11.8806 4.79162 11.8406 4.95162 11.8806 5.09162C12.6406 7.74162 14.7606 9.86162 17.4106 10.6216C17.4506 10.6316 17.4906 10.6416 17.5306 10.6416C17.6406 10.6416 17.7406 10.6016 17.8206 10.5216L19.0206 9.31162C20.0106 8.33162 20.4906 7.38162 20.4906 6.42162C20.5006 5.43162 20.0206 4.47162 19.0206 3.48162Z"/>
    <path d="M15.6103 11.5308C15.3203 11.3908 15.0403 11.2508 14.7703 11.0908C14.5503 10.9608 14.3403 10.8208 14.1303 10.6708C13.9603 10.5608 13.7603 10.4008 13.5703 10.2408C13.5503 10.2308 13.4803 10.1708 13.4003 10.0908C13.0703 9.81078 12.7003 9.45078 12.3703 9.05078C12.3403 9.03078 12.2903 8.96078 12.2203 8.87078C12.1203 8.75078 11.9503 8.55078 11.8003 8.32078C11.6803 8.17078 11.5403 7.95078 11.4103 7.73078C11.2503 7.46078 11.1103 7.19078 10.9703 6.91078C10.9491 6.86539 10.9286 6.82022 10.9088 6.77532C10.7612 6.442 10.3265 6.34455 10.0688 6.60231L4.34032 12.3308C4.21032 12.4608 4.09032 12.7108 4.06032 12.8808L3.52032 16.7108C3.42032 17.3908 3.61032 18.0308 4.03032 18.4608C4.39032 18.8108 4.89032 19.0008 5.43032 19.0008C5.55032 19.0008 5.67032 18.9908 5.79032 18.9708L9.63032 18.4308C9.81032 18.4008 10.0603 18.2808 10.1803 18.1508L15.9016 12.4295C16.1612 12.1699 16.0633 11.7245 15.7257 11.5804C15.6877 11.5642 15.6492 11.5476 15.6103 11.5308Z"/>
</symbol><symbol viewBox="0 0 24 24" id="moon" xmlns="http://www.w3.org/2000/svg">
    <path d="M12.0557 3.59974C12.2752 3.2813 12.2913 2.86484 12.0972 2.53033C11.9031 2.19582 11.5335 2.00324 11.1481 2.03579C6.02351 2.46868 2 6.76392 2 12C2 17.5228 6.47715 22 12 22C17.236 22 21.5313 17.9764 21.9642 12.8518C21.9967 12.4664 21.8041 12.0968 21.4696 11.9027C21.1351 11.7086 20.7187 11.7248 20.4002 11.9443C19.4341 12.6102 18.2641 13 17 13C13.6863 13 11 10.3137 11 6.99996C11 5.73589 11.3898 4.56587 12.0557 3.59974Z"/>
</symbol><symbol viewBox="0 0 24 24" id="sun" xmlns="http://www.w3.org/2000/svg">
    <path d="M17 12C17 14.7614 14.7614 17 12 17C9.23858 17 7 14.7614 7 12C7 9.23858 9.23858 7 12 7C14.7614 7 17 9.23858 17 12Z"/>
    <path fill-rule="evenodd" clip-rule="evenodd" d="M12 1.25C12.4142 1.25 12.75 1.58579 12.75 2V4C12.75 4.41421 12.4142 4.75 12 4.75C11.5858 4.75 11.25 4.41421 11.25 4V2C11.25 1.58579 11.5858 1.25 12 1.25ZM3.66865 3.71609C3.94815 3.41039 4.42255 3.38915 4.72825 3.66865L6.95026 5.70024C7.25596 5.97974 7.2772 6.45413 6.9977 6.75983C6.7182 7.06553 6.2438 7.08677 5.9381 6.80727L3.71609 4.77569C3.41039 4.49619 3.38915 4.02179 3.66865 3.71609ZM20.3314 3.71609C20.6109 4.02179 20.5896 4.49619 20.2839 4.77569L18.0619 6.80727C17.7562 7.08677 17.2818 7.06553 17.0023 6.75983C16.7228 6.45413 16.744 5.97974 17.0497 5.70024L19.2718 3.66865C19.5775 3.38915 20.0518 3.41039 20.3314 3.71609ZM1.25 12C1.25 11.5858 1.58579 11.25 2 11.25H4C4.41421 11.25 4.75 11.5858 4.75 12C4.75 12.4142 4.41421 12.75 4 12.75H2C1.58579 12.75 1.25 12.4142 1.25 12ZM19.25 12C19.25 11.5858 19.5858 11.25 20 11.25H22C22.4142 11.25 22.75 11.5858 22.75 12C22.75 12.4142 22.4142 12.75 22 12.75H20C19.5858 12.75 19.25 12.4142 19.25 12ZM17.0255 17.0252C17.3184 16.7323 17.7933 16.7323 18.0862 17.0252L20.3082 19.2475C20.6011 19.5404 20.601 20.0153 20.3081 20.3082C20.0152 20.6011 19.5403 20.601 19.2475 20.3081L17.0255 18.0858C16.7326 17.7929 16.7326 17.3181 17.0255 17.0252ZM6.97467 17.0253C7.26756 17.3182 7.26756 17.7931 6.97467 18.086L4.75244 20.3082C4.45955 20.6011 3.98468 20.6011 3.69178 20.3082C3.39889 20.0153 3.39889 19.5404 3.69178 19.2476L5.91401 17.0253C6.2069 16.7324 6.68177 16.7324 6.97467 17.0253ZM12 19.25C12.4142 19.25 12.75 19.5858 12.75 20V22C12.75 22.4142 12.4142 22.75 12 22.75C11.5858 22.75 11.25 22.4142 11.25 22V20C11.25 19.5858 11.5858 19.25 12 19.25Z"/>
</symbol></svg>